# xmcd
#
# Track frame offsets:
#  150
#  14339
#  30875
#  45255
#  61191
#  76086
#  92323
#  106075
#  126552
#  139001
#  156426
#  168765
#
# Disc length: 2466 seconds
#
# Revision: 0
# Processed by: cddbd v1.5.2PL0 Copyright (c) Steve Scherf et al.
# Submitted via: Collectorz.com_Music_Collector 6.11
#
DISCID=7f09a00c
DTITLE=Edvīns Bauers - Aizsniegt debesis
DYEAR=2012
DGENRE=Country
TTITLE0=Aizmirst tevi
TTITLE1=Es gaidu
TTITLE2=Skatoties tālumā
TTITLE3=Tu aizgāji
TTITLE4=Ceļš nav tāls
TTITLE5=Laiks pagājis
TTITLE6=Vai tā esi tu
TTITLE7=Es sen vairs neskumstu
TTITLE8=Ar tavu vārdu
TTITLE9=Laimīgie neskaita stundas
TTITLE10=Aizsniegt debesis
TTITLE11=Tava mīlestība
EXTD=
EXTT0=
EXTT1=
EXTT2=
EXTT3=
EXTT4=
EXTT5=
EXTT6=
EXTT7=
EXTT8=
EXTT9=
EXTT10=
EXTT11=
PLAYORDER=
